<svg width="100" height="100" version="1.1" viewBox="0 0 100 100" xmlns="http://www.w3.org/2000/svg">
    <path d="m4e-5 0v84c0 4.2435 1.6857 8.3131 4.6863 11.314s7.0703 4.6863 11.314 4.6863h68c4.2435 0 8.3132-1.6857 11.314-4.6863 3.0006-3.0006 4.6863-7.0702 4.6863-11.314v-68c0-4.2435-1.6857-8.3131-4.6863-11.314-3.0005-3.0006-7.0702-4.6863-11.314-4.6863zm59.314 54.498c2.8156-0.0308 5.6328 0.8732 7.1933 2.7657 1.925 1.951 2.7646 5.7892 2.6016 9.3222h-6.7012c0.057-1.452-0.0805-3.7944-0.6445-4.6484-0.395-0.723-1.1432-1.0859-2.2422-1.0859-1.959 0-2.9375 1.1707-2.9375 3.5117 0.021 2.486 0.9901 3.5059 3.2481 4.5449 2.924 1.136 6.6422 3.0758 7.9902 5.4238 4.02 7.154 1.2616 18.083-8.6094 17.666l2e-3 2e-3c-7.117 0.098-10.302-4.9652-10.105-11.828h6.959c-0.193 2.992 0.8348 5.7154 3.2988 5.5254 1.099 0 1.8733-0.3442 2.3203-1.0332 0.85-1.259 1.0099-4.8938-0.2051-6.3008-0.849-1.355-3.9026-2.5514-5.5156-3.3574-2.303-1.102-3.9626-2.4098-4.9766-3.9258-2.287-3.364-2.0742-10.748 1.1348-13.74 1.559-1.846 4.3738-2.8109 7.1894-2.8418zm22.477 0c2.8156-0.0308 5.6309 0.8732 7.1914 2.7657 1.925 1.951 2.7665 5.7892 2.6035 9.3222h-6.7012c0.057-1.452-0.0805-3.7944-0.6445-4.6484-0.395-0.723-1.1432-1.0859-2.2422-1.0859-1.959 0-2.9375 1.1707-2.9375 3.5117 0.021 2.486 0.99 3.5059 3.248 4.5449 2.924 1.136 6.6423 3.0758 7.9903 5.4238 4.02 7.154 1.2616 18.083-8.6094 17.666v2e-3c-7.117 0.098-10.3-4.9652-10.104-11.828h6.959c-0.193 2.992 0.8348 5.7154 3.2988 5.5254 1.099 0 1.8733-0.3442 2.3203-1.0332 0.85-1.259 1.008-4.8938-0.207-6.3008-0.849-1.355-3.9027-2.5514-5.5157-3.3574-2.303-1.102-3.9606-2.4098-4.9746-3.9258-2.287-3.364-2.0742-10.748 1.1348-13.74 1.559-1.846 4.3738-2.8109 7.1895-2.8418zm-45.67 0.0528c2.9367-0.0195 5.8636 0.848 7.6016 2.6875 2.142 1.889 2.9498 5.7486 2.7578 9.3496h-7.3711c0.056-1.415-0.0196-3.5582-0.8516-4.3652-1.081-1.463-3.9364-1.2926-4.6914 0.2304-0.464 0.826-0.6953 2.05-0.6953 3.668v14.617c0 3.065 1.0643 4.6164 3.1953 4.6504 0.996 0 1.7546-0.363 2.2696-1.086 0.719-0.858 0.8295-2.7568 0.7715-4.1308h7.373c0.504 7.0063-3.6322 11.914-10.67 11.828-6.4218-7e-3 -10.387-3.624-10.311-10.279v-16.838c0-3.374 0.9889-5.9413 2.9649-7.6973 1.7745-1.7095 4.7196-2.6152 7.6562-2.6347z" fill="#639"/>
</svg>
