
<svg width="100" height="100" version="1.1" viewBox="0 0 100 100" xmlns="http://www.w3.org/2000/svg" color="white" fill="currentColor">
    <path d="m52.323 0.054912c27.565 1.2823 48.904 24.703 47.622 52.268-1.2823 27.565-24.703 48.904-52.268 47.621-27.565-1.2823-48.904-24.703-47.622-52.268 1.2823-27.565 24.703-48.904 52.268-47.622zm11.69 60.205c-3.156-0.15519-6.2715-0.68265-8.7766-1.1014-1.9048-0.31854-3.7113-0.82074-5.1944-1.3299-0.24203-0.08693-0.51222-0.0058-0.66641 0.19978-0.15399 0.2058-0.17628 0.50471-0.0043 0.69569 0.70001 0.77667 2.9206 2.3948 4.6458 3.1378-1.4748 1.2177-2.4835 4.0022-2.8811 5.4438-0.5335 1.9342-0.60936 4.7274-0.48014 5.7525 0.51978 4.1239 2.0362 7.8196 5.7908 11.053 2.6282 2.263 6.4315 3.8097 10.319 3.879 5.3642 0.09547 11.79-2.2089 16.835-7.3892 6.5952-7.2304 10.916-16.632 11.718-27.137 1.91-25.014-16.847-46.872-41.861-48.782-25.013-1.91-46.872 16.847-48.782 41.861-0.98917 12.954 3.5646 25.062 11.661 33.99 0.22546 0.24504 0.58907 0.30471 0.88096 0.14453 0.29189-0.16019 0.43677-0.49909 0.35092-0.82084-6.0039-23.517 7.0205-48.901 21.558-56.935 5.3971-2.9827 10.654-4.1166 15.377-2.2066 7.2312 2.924 11.365 7.7718 20.315 11.849 8.9498 4.0773 9.9177 10.875 7.4229 17.747-2.4948 6.8722-10.533 10.326-18.228 9.9485zm-15.66-36.376c-2.933 0.22954-4.8588 3.8598-5.111 6.1953-0.25326 2.3352 0.90579 6.1895 4.7275 6.1143 4.4756-0.08819 5.8354-3.9192 5.3444-7.6261-0.36852-2.7839-2.5088-4.8756-4.9609-4.6834z"/>
</svg>