
<svg width="100" height="100" version="1.1" viewBox="0 0 100 100" xmlns="http://www.w3.org/2000/svg">
    <path d="m90.234 0-80.506 0.0019531c-5.3791 0.02005-9.7044 4.3441-9.7266 9.7227v0.00195l0.0019531 16.185h21.793c1.6766-3.4014 5.1545-5.7393 9.1914-5.7382 4.0617 0.0011 7.5583 2.3683 9.2227 5.8008h21.006c1.6653-3.4314 5.1629-5.8039 9.2246-5.8008 5.6713 6.2e-5 10.268 4.6114 10.27 10.307-9.7e-4 5.6963-4.596 10.31-10.271 10.312-4.2669-0.0021-7.9308-2.6204-9.4766-6.3438l-19.59 2e-3 25.775 25.875c1.0332-0.34986 2.1422-0.54689 3.293-0.54688 5.6713 6.1e-5 10.267 4.6123 10.27 10.309-9.7e-4 5.6922-4.5994 10.308-10.268 10.307-5.6754-0.0042-10.271-4.6164-10.27-10.309 1e-3 -1.4067 0.28348-2.7549 0.79492-3.9805l-26.016-26.115c-1.2209 0.51341-2.5563 0.79898-3.9648 0.79688-4.2947 9.9e-4 -7.9635-2.6467-9.5-6.4001h-21.486l-0.0019531 55.847c0 5.4104 4.3553 9.7656 9.7656 9.7656l80.506-2e-3c5.393-0.020054 9.7285-4.3659 9.7285-9.7636v-80.469c0-5.4104-4.3553-9.7656-9.7656-9.7656z" fill="#f05133"/>
</svg>
