
<svg width="100" height="100" version="1.1" viewBox="0 0 100 100" xmlns="http://www.w3.org/2000/svg">
    <path d="m9.7656 0c-5.4104 0-9.7656 4.3553-9.7656 9.7656v80.469c0 5.4104 4.3553 9.7656 9.7656 9.7656h80.469c5.4104 0 9.7656-4.3553 9.7656-9.7656v-80.469c0-5.4104-4.3553-9.7656-9.7656-9.7656zm66.346 45.379c5.9746 0 10.27 2.079 13.365 7.5234l-7.3184 4.6992c-1.6111-2.8889-3.3485-4.0273-6.0469-4.0273-2.7524 0-4.4961 1.7464-4.4961 4.0273 0 2.819 1.7456 3.961 5.7773 5.707l2.3496 1.0059c7.9841 3.4238 12.49 6.9141 12.49 14.762 0 8.4603-6.6449 13.096-15.57 13.096-8.727 0-14.364-4.1586-17.123-9.6094l7.6348-4.4375c2.0143 3.2889 4.6366 5.707 9.2715 5.707 3.8936 0 6.3809-1.9459 6.3809-4.6348 0-3.2222-2.5561-4.3637-6.8418-6.2383l-2.3496-1.0078c-6.7809-2.8889-11.285-6.5074-11.285-14.158 0-7.0476 5.3697-12.414 13.762-12.414zm-31.049 0.53711h9.3965v32.08c0 9.7301-5.7043 14.158-14.031 14.158-7.5238 0-11.882-3.8943-14.098-8.584l7.6484-4.6309c1.4762 2.619 2.8203 4.834 6.0488 4.834 3.0873 0 5.0352-1.2075 5.0352-5.9043z" fill="#f0dc4e"/>
</svg>
