<svg xmlns="http://www.w3.org/2000/svg" width="100" height="100" version="1.1" viewBox="0 0 100 100">
    <path d="m50 100c-1.378 0-2.6642-0.36747-3.8585-1.0106l-12.219-7.2577c-1.8374-1.0106-0.9187-1.378-0.36748-1.5618 2.4805-0.82682 2.9398-1.0106 5.5122-2.4805 0.27561-0.18373 0.64309-0.0919 0.9187 0.0919l9.3707 5.604c0.36748 0.18373 0.82683 0.18373 1.1024 0l36.656-21.222c0.36748-0.18374 0.55122-0.55121 0.55122-1.0106v-42.352c0-0.45935-0.18374-0.82683-0.55122-1.0106l-36.656-21.13c-0.36748-0.18374-0.82683-0.18374-1.1024 0l-36.656 21.13c-0.36747 0.18374-0.55121 0.64309-0.55121 1.0106v42.352c0 0.36748 0.18374 0.82682 0.55121 1.0106l10.014 5.7878c5.4203 2.7561 8.8195-0.45935 8.8195-3.6748v-41.801c0-0.55122 0.45935-1.1024 1.1024-1.1024h4.6853c0.55122 0 1.1024 0.45934 1.1024 1.1024v41.801c0 7.2577-3.9504 11.484-10.841 11.484-2.113 0-3.7666 0-8.452-2.2967l-9.6463-5.5122c-2.3886-1.378-3.8585-3.9504-3.8585-6.7065v-42.352c0-2.7561 1.4699-5.3284 3.8585-6.7065l36.656-21.222c2.2967-1.2862 5.4203-1.2862 7.717 0l36.656 21.222c2.3886 1.378 3.8585 3.9504 3.8585 6.7065v42.352c0 2.7561-1.4699 5.3284-3.8585 6.7065l-36.656 21.222c-1.1943 0.55122-2.5724 0.82682-3.8585 0.82682zm11.3-29.123c-16.077 0-19.384-7.3496-19.384-13.597 0-0.55121 0.45935-1.1024 1.1024-1.1024h4.7772c0.55122 0 1.0106 0.36748 1.0106 0.9187 0.73496 4.8691 2.848 7.2577 12.586 7.2577 7.717 0 11.024-1.7455 11.024-5.8796 0-2.3886-0.9187-4.1341-12.954-5.3284-10.014-1.0106-16.261-3.2154-16.261-11.208 0-7.4414 6.2471-11.851 16.72-11.851 11.759 0 17.547 4.0423 18.282 12.862 0 0.27561-0.0919 0.55121-0.27561 0.82682-0.18374 0.18374-0.45935 0.36748-0.73496 0.36748h-4.7772c-0.45935 0-0.9187-0.36748-1.0106-0.82683-1.1024-5.0528-3.9504-6.7065-11.484-6.7065-8.452 0-9.4626 2.9398-9.4626 5.1447 0 2.6642 1.1943 3.491 12.586 4.961 11.3 1.4699 16.628 3.5829 16.628 11.484-0.0919 8.0845-6.7065 12.678-18.374 12.678z" fill="#539e43"/>
</svg>