<svg width="100" height="100" version="1.1" viewBox="0 0 100 100" xmlns="http://www.w3.org/2000/svg">
    <path d="m29.66 5.418c-1.6573 0.056065-3.2353 0.45861-4.6602 1.2812-2.8497 1.6453-4.5501 4.6629-5.3145 8.2363s-0.68574 7.8205 0.076172 12.576c0.29368 1.8331 0.72136 3.7632 1.2188 5.7344-1.9557 0.55483-3.84 1.1484-5.5742 1.8105-4.4995 1.718-8.2172 3.774-10.93 6.2227-2.7125 2.4487-4.4766 5.4301-4.4766 8.7207s1.764 6.274 4.4766 8.7227c2.7125 2.4487 6.4302 4.5027 10.93 6.2207 1.7342 0.66216 3.6185 1.2557 5.5742 1.8105-0.49749 1.9712-0.92508 3.8994-1.2188 5.7324-0.76192 4.7557-0.84052 9.0047-0.076172 12.578 0.76435 3.5735 2.4647 6.591 5.3145 8.2363s6.3141 1.6111 9.791 0.48633c3.4769-1.1248 7.1159-3.3197 10.854-6.3574 1.4404-1.1706 2.8954-2.5058 4.3535-3.9219 1.4588 1.4168 2.9164 2.7507 4.3574 3.9219 3.7376 3.0377 7.3766 5.2326 10.854 6.3574 3.4769 1.1248 6.9413 1.159 9.791-0.48633s4.5521-4.6629 5.3164-8.2363c0.76435-3.5735 0.68379-7.8224-0.078125-12.578-0.29368-1.8331-0.72136-3.7612-1.2188-5.7324 1.9557-0.55483 3.84-1.1484 5.5742-1.8105 4.4995-1.718 8.2172-3.772 10.93-6.2207 2.7125-2.4487 4.4766-5.4321 4.4766-8.7227s-1.764-6.272-4.4766-8.7207c-2.7125-2.4487-6.4302-4.5046-10.93-6.2227-1.7342-0.66216-3.6185-1.2557-5.5742-1.8105 0.49739-1.9712 0.92507-3.9013 1.2188-5.7344 0.76192-4.7557 0.84248-9.0027 0.078125-12.576-0.76435-3.5735-2.4667-6.593-5.3164-8.2383-2.8497-1.6453-6.3141-1.6072-9.791-0.48242-3.4769 1.1248-7.1159 3.3158-10.854 6.3535-1.4409 1.171-2.8969 2.5072-4.3555 3.9238-1.4587-1.4166-2.9146-2.7528-4.3555-3.9238-3.7376-3.0377-7.3766-5.2287-10.854-6.3535-1.7384-0.56239-3.4736-0.85294-5.1309-0.79688zm0.19922 4.3301c1.0391-0.02915 2.2282 0.16042 3.5918 0.60156 2.7273 0.88228 5.9976 2.7885 9.4492 5.5938 1.3297 1.0807 2.6918 2.3306 4.0625 3.6641-2.8618 3.094-5.7011 6.6126-8.4473 10.496-4.7384 0.4368-9.2064 1.1362-13.318 2.0684-0.46929-1.8531-0.87161-3.6564-1.1426-5.3477-0.70362-4.3919-0.7187-8.1774-0.11914-10.98 0.59956-2.803 1.7209-4.5048 3.2383-5.3809 0.75867-0.43802 1.6465-0.68569 2.6855-0.71484zm40.281 0c1.0391 0.02915 1.9269 0.27683 2.6855 0.71484 1.5173 0.87603 2.6387 2.5778 3.2383 5.3809s0.58448 6.5886-0.11914 10.98c-0.27101 1.6916-0.67113 3.4963-1.1406 5.3496-4.1121-0.93228-8.5798-1.6334-13.318-2.0703-2.747-3.8843-5.5865-7.4016-8.4492-10.496 1.3704-1.3334 2.731-2.5835 4.0605-3.6641 3.4516-2.8053 6.7219-4.7115 9.4492-5.5938 1.3636-0.44114 2.5547-0.63071 3.5938-0.60156zm-20.141 12.986c1.9435 2.1153 3.8908 4.4405 5.8125 6.9746-1.91-0.086386-3.8419-0.14453-5.8125-0.14453-1.9699 0-3.9012 0.058204-5.8105 0.14453 1.9212-2.5339 3.8675-4.8594 5.8105-6.9746zm0 11.18c3.1131 0 6.1489 0.12431 9.0898 0.3457 1.6616 2.4353 3.2859 5.0004 4.8418 7.6953 1.5564 2.6957 2.9676 5.3875 4.2461 8.0449-1.2786 2.6573-2.6897 5.3473-4.2461 8.043-1.5562 2.6954-3.18 5.2635-4.8418 7.6992-2.9409 0.22156-5.9767 0.3457-9.0898 0.3457s-6.1489-0.12414-9.0898-0.3457c-1.662-2.4357-3.2875-5.0038-4.8438-7.6992-1.5561-2.6952-2.9678-5.3841-4.2461-8.041 1.2789-2.6581 2.6912-5.3484 4.248-8.0449 1.5559-2.6949 3.1823-5.2619 4.8438-7.6973 2.9403-0.2213 5.9755-0.3457 9.0879-0.3457zm-14.666 0.9082c-1.0294 1.6105-2.0443 3.2549-3.0293 4.9609-0.98528 1.7066-1.903 3.4082-2.7832 5.1055-1.2336-2.9307-2.2746-5.7793-3.1348-8.5195 2.8039-0.62529 5.7914-1.1499 8.9473-1.5469zm29.336 0c3.1544 0.3969 6.1406 0.92184 8.9434 1.5469-0.86035 2.7403-1.9009 5.5888-3.1348 8.5195-0.88023-1.6974-1.7959-3.4008-2.7812-5.1074-0.98447-1.7051-1.9984-3.3493-3.0273-4.959zm-42.51 2.6113c1.2487 4.027 2.8744 8.2466 4.8652 12.568-1.9905 4.3207-3.6166 8.5384-4.8652 12.564-1.8397-0.52016-3.6028-1.0745-5.2031-1.6855-4.1553-1.5866-7.4406-3.466-9.5684-5.3867-2.1277-1.9208-3.041-3.7421-3.041-5.4941 1e-7 -1.7521 0.9133-3.5734 3.041-5.4941 2.1277-1.9208 5.4131-3.8001 9.5684-5.3867 1.6003-0.61104 3.3635-1.1655 5.2031-1.6855zm55.68 0c1.8397 0.52005 3.6028 1.0745 5.2031 1.6855 4.1553 1.5866 7.4406 3.466 9.5684 5.3867 2.1277 1.9208 3.041 3.7421 3.041 5.4941s-0.9133 3.5734-3.041 5.4941c-2.1277 1.9208-5.4131 3.8001-9.5684 5.3867-1.6003 0.61104-3.3635 1.1654-5.2031 1.6855-1.2485-4.0266-2.8767-8.2451-4.8672-12.566 1.9905-4.3213 3.6186-8.5398 4.8672-12.566zm-27.84 3.6543a8.913 8.913 0 0 0-8.9121 8.9121 8.913 8.913 0 0 0 8.9121 8.9141 8.913 8.913 0 0 0 8.9121-8.9141 8.913 8.913 0 0 0-8.9121-8.9121zm20.479 14.023c1.2339 2.9315 2.2726 5.7806 3.1328 8.5215-2.8033 0.6253-5.7903 1.1498-8.9453 1.5469 1.03-1.6112 2.0458-3.2561 3.0312-4.9629 0.98528-1.7066 1.9011-3.4082 2.7812-5.1055zm-40.957 0.00586c0.87936 1.6955 1.7951 3.3949 2.7793 5.0996 0.98544 1.7068 2.0032 3.3517 3.0332 4.9629-3.155-0.3971-6.142-0.92158-8.9453-1.5469 0.85989-2.739 1.8998-5.5862 3.1328-8.5156zm-4.3242 12.711c4.1114 0.93203 8.5787 1.6315 13.316 2.0684 2.747 3.8842 5.5865 7.4037 8.4492 10.498-1.3699 1.3328-2.7315 2.5819-4.0605 3.6621-3.4516 2.8053-6.7219 4.7095-9.4492 5.5918-2.7273 0.88228-4.762 0.76275-6.2793-0.11328-1.5173-0.87603-2.6387-2.5778-3.2383-5.3809-0.59956-2.803-0.58448-6.5867 0.11914-10.979 0.27092-1.691 0.6733-3.495 1.1426-5.3477zm49.604 0c0.4692 1.8528 0.87165 3.6566 1.1426 5.3477 0.70362 4.3919 0.7187 8.1755 0.11914 10.979s-1.719 4.5048-3.2363 5.3809c-1.5173 0.87603-3.552 0.99556-6.2793 0.11328-2.7273-0.88228-5.9976-2.7865-9.4492-5.5918-1.3294-1.0804-2.6902-2.3309-4.0605-3.6641 2.8624-3.0941 5.7025-6.6123 8.4492-10.496 4.7369-0.43675 9.2035-1.1365 13.314-2.0684zm-30.613 2.4629c1.91 0.086386 3.8419 0.14453 5.8125 0.14453s3.9025-0.058145 5.8125-0.14453c-1.9216 2.5345-3.8691 4.859-5.8125 6.9746-1.9437-2.1156-3.8905-4.4401-5.8125-6.9746z" fill="#00d1f7"/>
</svg>