
<svg width="100" height="100" version="1.1" viewBox="0 0 100 100" xmlns="http://www.w3.org/2000/svg">
    <path d="m9.7656 0c-5.4103 0-9.7656 4.3553-9.7656 9.7656v80.468c0 5.4104 4.3553 9.7656 9.7656 9.7656h80.468c5.4104 0 9.7656-4.3552 9.7656-9.7656v-80.468c0-5.4103-4.3552-9.7656-9.7656-9.7656zm69.162 46.484c2.2823 0 4.3057 0.1371 6.0684 0.4121s3.3875 0.6972 4.875 1.2675v9.1367c-0.7336-0.5093-1.5344-0.9566-2.4004-1.3437-0.8662-0.3869-1.7569-0.7082-2.6738-0.9629-0.9172-0.2545-1.8295-0.4441-2.7364-0.5664-0.9068-0.1221-1.767-0.1816-2.582-0.1816-1.1209 0-2.1394 0.1064-3.0566 0.3203-0.917 0.2138-1.6924 0.5134-2.3242 0.9004-0.6317 0.3871-1.1203 0.8507-1.4668 1.3906-0.3465 0.5398-0.5196 1.1463-0.5196 1.8183 0 0.7334 0.193 1.3901 0.5801 1.9707 0.3871 0.5805 0.9391 1.1309 1.6524 1.6504 0.7132 0.5194 1.5787 1.0281 2.5976 1.5274 1.019 0.499 2.1693 1.0132 3.4531 1.5429 1.7526 0.7332 3.3268 1.5129 4.7227 2.3379s2.5933 1.7561 3.5918 2.7949c0.9986 1.0389 1.763 2.2264 2.2929 3.5606 0.5299 1.3341 0.7949 2.8859 0.7949 4.6581 0 2.4444-0.4634 4.4981-1.3906 6.1582-0.9271 1.6602-2.1859 3.0047-3.7754 4.0332-1.5894 1.0287-3.4396 1.7668-5.5488 2.2149-2.1091 0.4482-4.3341 0.6718-6.6777 0.6718-2.4047 0-4.693-0.2039-6.8633-0.6113s-4.0492-1.0191-5.6386-1.834v-9.7773c1.7728 1.4871 3.6988 2.6024 5.7773 3.3457 2.0787 0.7436 4.1775 1.1152 6.2969 1.1152 1.2431 0 2.3285-0.1117 3.2558-0.3359 0.9272-0.224 1.7008-0.5344 2.3223-0.9316 0.6215-0.3973 1.0849-0.8645 1.3906-1.4043 0.3057-0.5399 0.459-1.1264 0.459-1.7578 0-0.8557-0.2453-1.619-0.7344-2.291-0.4892-0.6723-1.1562-1.295-2.0019-1.8653-0.8455-0.5703-1.8483-1.1187-3.0098-1.6484s-2.4148-1.0691-3.7597-1.6191c-3.4237-1.426-5.9772-3.1674-7.6582-5.2246-1.6813-2.0575-2.5215-4.5442-2.5215-7.4571 0-2.2814 0.458-4.2412 1.375-5.8808 0.917-1.6398 2.1648-2.9894 3.7441-4.0488 1.5795-1.0592 3.4098-1.8389 5.4883-2.3379s4.2783-0.748 6.6015-0.748zm-55.881 0.9765h34.961v8.0234h-12.543v35.726h-9.9355v-35.726h-12.482z" fill="#2f74c0"/>
</svg>
