<svg width="100" height="100" version="1.1" viewBox="0 0 100 100" xmlns="http://www.w3.org/2000/svg">
    <defs>
        <linearGradient id="c" x1="999.39" x2="999.39" y1="1990.5" y2="2.002" gradientTransform="matrix(.049997 0 0 -.049997 61.829 118.4)" gradientUnits="userSpaceOnUse">
            <stop stop-color="#fff" offset="0"/>
            <stop stop-color="#fff" stop-opacity="0" offset="1"/>
        </linearGradient>
    </defs>
    <g stroke-width=".049997">
        <path d="m96.462 10.821-20.594-9.9144c-2.3849-1.1499-5.2297-0.66496-7.1046 1.2049l-67.401 61.461c-1.8149 1.6549-1.8099 4.5097 5e-3 6.1596l5.5047 5.0047c1.4849 1.3499 3.7198 1.4499 5.3197 0.235l81.17-61.576c2.7248-2.0649 6.6346-0.125 6.6346 3.2948v-0.24c0-2.3998-1.3749-4.5847-3.5348-5.6297z" fill="#0065a9"/>
        <path d="m96.462 89.177-20.589 9.9144c-2.3848 1.1498-5.2296 0.6649-7.1045-1.205l-67.406-61.461c-1.8149-1.6549-1.8099-4.5097 5e-3 -6.1596l5.5047-5.0047c1.4849-1.3499 3.7198-1.4499 5.3197-0.235l81.175 61.581c2.7248 2.0649 6.6342 0.125 6.6342-3.2948v0.24c-0.0046 2.3999-1.3795 4.5847-3.5394 5.6247z" fill="#007acc"/>
        <path d="m75.868 99.096c-2.3849 1.1448-5.2347 0.6599-7.1046-1.21 2.3048 2.3048 6.2446 0.67 6.2446-2.5848v-90.6c0-3.2598-3.9398-4.8897-6.2446-2.5848 1.8699-1.8699 4.7197-2.3549 7.1046-1.2099l20.589 9.8994c2.1649 1.04 3.5398 3.2299 3.5398 5.6297v67.131c0 2.3998-1.3749 4.5897-3.5398 5.6297z" fill="#1f9cf0"/>
        <path d="m70.868 99.286c1.5749 0.615 3.3698 0.575 4.9597-0.1899l20.574-9.8994c2.1599-1.04 3.5348-3.2299 3.5348-5.6297v-67.131c0-2.3998-1.3749-4.5897-3.5348-5.6297l-20.574-9.8994c-2.0848-1.0049-4.5247-0.75995-6.3546 0.57496-0.26 0.18999-0.5099 0.39998-0.7449 0.63496l-39.393 35.933-17.154-13.024c-1.5949-1.2099-3.8298-1.1149-5.3147 0.235l-5.5047 5.0097c-1.8149 1.6499-1.8149 4.5047-5e-3 6.1596l14.879 13.574-14.874 13.569c-1.8099 1.6549-1.8099 4.5097 5e-3 6.1596l5.4997 5.0047c1.4849 1.3499 3.7148 1.4499 5.3147 0.235l17.154-13.024 39.388 35.933c0.6249 0.63 1.3549 1.1 2.1448 1.4049zm4.0998-71.971-29.888 22.684 29.888 22.684z" clip-rule="evenodd" fill="url(#c)" fill-rule="evenodd" opacity=".25"/>
    </g>
</svg>
